<svg width="111" height="152" viewBox="0 0 111 152" fill="none" xmlns="http://www.w3.org/2000/svg">
<g clip-path="url(#clip0_26_611)">
<path opacity="0.5" d="M110.757 96.3991C110.757 122.474 86.1545 143.612 55.8033 143.612C25.452 143.612 0.849121 122.474 0.849121 96.3991C0.849121 70.3243 24.5928 43.3357 54.8023 42.8625C82.5869 42.4263 110.757 70.3243 110.757 96.3991Z" fill="white"/>
<path d="M55.8032 151.462C73.0402 151.462 87.0136 146.266 87.0136 139.856C87.0136 133.447 73.0402 128.25 55.8032 128.25C38.5661 128.25 24.5927 133.447 24.5927 139.856C24.5927 146.266 38.5661 151.462 55.8032 151.462Z" fill="#502F16"/>
<path d="M4.66544 113.721C12.7058 131.225 32.5699 143.612 55.8033 143.612C77.5124 143.612 96.2797 132.795 105.208 117.094C59.3971 133.788 22.3467 121.997 4.66544 113.721Z" fill="#784413"/>
<path d="M110.289 90.4957C59.384 111.134 18.5369 96.135 1.71923 87.6455C1.14788 90.548 0.849121 93.4789 0.849121 96.3989C0.849121 102.514 2.20335 108.358 4.66538 113.72C22.3467 121.996 59.3971 133.787 105.207 117.094C108.76 110.844 110.757 103.822 110.757 96.3989C110.757 94.4384 110.596 92.4649 110.289 90.4957Z" fill="#F4B81A"/>
<path d="M72.0736 46.0531C66.4735 43.9291 60.6292 42.7689 54.8001 42.8605C48.295 42.963 42.093 44.2976 36.3599 46.583C42.237 45.5973 48.9165 45.0412 55.9995 45.0412C61.6868 45.0412 67.1124 45.401 72.0736 46.0531Z" fill="#784413"/>
<path d="M96.478 63.1038C90.8561 68.5731 74.8606 72.5202 55.9995 72.5202C35.9871 72.5202 19.1999 68.0759 14.6095 62.0854C8.08256 69.5195 3.52704 78.4474 1.71704 87.6479C18.5348 96.1374 59.3818 111.136 110.286 90.498C108.775 80.7938 103.685 71.1507 96.4759 63.106L96.478 63.1038Z" fill="#784413"/>
<path d="M56.0018 72.5198C74.8607 72.5198 90.8584 68.5727 96.4803 63.1034C89.7855 55.6323 81.2633 49.5394 72.0759 46.0546C67.1147 45.4025 61.6891 45.0427 56.0018 45.0427C48.9188 45.0427 42.2414 45.601 36.3622 46.5845C27.8967 49.9624 20.4626 55.4208 14.6117 62.0829C19.2021 68.0755 35.9893 72.5176 56.0018 72.5176V72.5198Z" fill="#5D340C"/>
<path d="M55.8032 61.6165C77.5422 61.6165 95.1652 55.4655 95.1652 47.8779C95.1652 40.2904 77.5422 34.1394 55.8032 34.1394C34.0642 34.1394 16.4412 40.2904 16.4412 47.8779C16.4412 55.4655 34.0642 61.6165 55.8032 61.6165Z" fill="#7B411A"/>
<path d="M55.8033 52.2393C71.8215 52.2393 84.8069 48.5077 84.8069 43.9045C84.8069 39.3014 71.8215 35.5698 55.8033 35.5698C39.7851 35.5698 26.7997 39.3014 26.7997 43.9045C26.7997 48.5077 39.7851 52.2393 55.8033 52.2393Z" fill="#5F330C"/>
<path d="M80.4738 43.6276C80.4149 43.8783 80.3625 44.1618 80.3167 44.4802C80.223 45.1497 79.8108 45.7276 79.222 46.0569C78.0597 46.7046 76.5179 47.9497 78.4631 49.2952C81.2981 51.2579 81.9523 49.0772 83.0426 52.1302C84.133 55.1832 82.3884 58.2362 83.0426 61.9434C83.3152 63.4917 84.5692 66.0868 87.6222 65.2145C90.6752 64.3422 94.3824 61.7254 91.5475 55.1832C88.7125 48.641 92.4197 50.3856 91.5475 48.2049C90.7668 46.2553 87.7203 41.5144 83.1844 41.4686C81.8912 41.4556 80.766 42.3671 80.4738 43.6276Z" fill="#FDD91D"/>
<path d="M60.5814 54.5297L72.4075 3.78875C72.5536 3.16289 72.8502 2.58063 73.2798 2.10088C74.2785 0.982166 76.3764 -0.583591 79.7718 0.45007C84.7874 1.97657 83.479 6.77416 83.479 6.77416L67.7778 56.9307L60.5814 54.5319V54.5297Z" fill="#997132"/>
<path d="M62.1274 53.7113L73.8401 5.26875C74.117 4.11733 74.7603 3.10111 75.6697 2.48833C76.5224 1.9148 77.7152 1.58769 79.2461 2.27026C82.6938 3.80548 81.5489 7.98592 81.5489 7.98592L67.3764 53.8552L62.1252 53.7113H62.1274Z" fill="#A48346"/>
<path d="M38.1198 52.7846C38.1198 52.7846 34.8487 49.2954 39.6463 49.2954C44.4439 49.2954 53.1668 51.04 56.6559 51.04C60.1451 51.04 64.9427 52.1303 67.1234 51.04C69.3041 49.9496 73.8836 47.987 75.4101 51.04C76.9366 54.093 74.1017 55.4014 71.7029 57.3641C69.3041 59.3267 72.139 63.4701 67.7776 63.9062C63.4161 64.3424 63.4161 60.199 61.0174 60.199C58.6186 60.199 56.2198 61.5074 57.9643 65.8689C59.5105 69.7353 60.7164 75.4902 54.1263 77.8083C51.9041 78.589 49.4072 78.2597 47.5798 76.7725C45.9704 75.464 44.771 73.2833 46.4065 69.7942C46.4065 69.7942 50.5499 61.2894 46.1885 60.6352C41.827 59.9809 47.4969 64.5604 44.662 65.2147C41.827 65.8689 34.8487 65.4327 35.2849 60.199C35.721 54.9653 39.2102 54.5291 38.1198 52.7846Z" fill="#FDD91D"/>
</g>
<defs>
<clipPath id="clip0_26_611">
<rect width="109.908" height="151.353" fill="white" transform="translate(0.849121 0.109375)"/>
</clipPath>
</defs>
</svg>
