<svg xmlns="http://www.w3.org/2000/svg" width="53" height="45" viewBox="0 0 53 45" fill="none">
<g clip-path="url(#clip0_2600_17564)">
<path d="M16.6869 15.7515C16.4715 15.7515 16.2645 15.6603 16.1154 15.4861C15.2459 14.4658 14.8484 13.4124 14.9395 12.3506C15.0637 10.8409 16.1569 9.91191 16.2065 9.87043C16.7862 9.37274 17.0844 8.83356 17.1092 8.24462C17.1506 7.09992 16.1651 6.07965 16.1569 6.07135C15.8587 5.77274 15.8587 5.29992 16.1569 5.00131C16.455 4.70269 16.927 4.70269 17.2251 5.00131C17.2831 5.05937 18.6909 6.4861 18.6164 8.30269C18.575 9.33126 18.0947 10.2437 17.1837 11.0317C17.0098 11.181 15.5689 12.5248 17.2665 14.5073C17.5398 14.8225 17.4984 15.3036 17.1837 15.5773C17.0429 15.7018 16.869 15.7598 16.6951 15.7598L16.6869 15.7515Z" fill="#9F9F9F" stroke="#9F9F9F" stroke-width="1.05069" stroke-miterlimit="10"/>
<path d="M26.5084 11.5963C26.2931 11.5963 26.086 11.505 25.937 11.3308C25.0674 10.3105 24.6699 9.25709 24.761 8.19534C24.8853 6.68567 25.9784 5.75663 26.0281 5.71516C26.6078 5.21746 26.9059 4.67829 26.9307 4.08935C26.9721 2.94465 25.9867 1.92437 25.9784 1.91608C25.6803 1.61746 25.6803 1.14465 25.9784 0.846033C26.2765 0.547416 26.7485 0.547416 27.0467 0.846033C27.1046 0.904098 28.5124 2.33083 28.4379 4.14742C28.3965 5.17599 27.9162 6.08843 27.0053 6.87645C26.8314 7.02576 25.3904 8.36954 27.0881 10.352C27.3614 10.6672 27.3199 11.1483 27.0053 11.4221C26.8645 11.5465 26.6906 11.6046 26.5167 11.6046L26.5084 11.5963Z" fill="#9F9F9F" stroke="#9F9F9F" stroke-width="1.05069" stroke-miterlimit="10"/>
<path d="M36.5203 15.5611C36.305 15.5611 36.098 15.4699 35.9489 15.2957C35.0794 14.2754 34.6819 13.2219 34.773 12.1602C34.8972 10.6505 35.9903 9.72148 36.04 9.68C36.6197 9.18231 36.9178 8.64314 36.9427 8.0542C36.9841 6.90949 35.9986 5.88922 35.9903 5.88092C35.6922 5.58231 35.6922 5.10949 35.9903 4.81088C36.2885 4.51226 36.7605 4.51226 37.0586 4.81088C37.1166 4.86894 38.5244 6.29567 38.4499 8.11226C38.4085 9.14083 37.9282 10.0533 37.0172 10.8413C36.8433 10.9906 35.4024 12.3344 37.1 14.3169C37.3733 14.6321 37.3319 15.1132 37.0172 15.3869C36.8764 15.5113 36.7025 15.5694 36.5286 15.5694L36.5203 15.5611Z" fill="#9F9F9F" stroke="#9F9F9F" stroke-width="1.05069" stroke-miterlimit="10"/>
<path d="M52.5361 33.702C51.6335 31.1306 48.9421 25.7721 41.5717 22.4624C38.5988 26.2698 39.2613 29.6292 39.3027 29.8283C39.5428 30.8486 38.9135 31.8522 37.9032 32.0928C37.7541 32.126 37.6133 32.1426 37.4725 32.1426C36.6196 32.1426 35.8411 31.5536 35.6341 30.6827C35.5678 30.4172 34.5989 26.0126 37.8783 21.1186C35.7832 20.5131 33.3982 20.0651 30.6902 19.8329C25.68 25.1499 27.1955 29.8449 27.2783 30.0771C27.6427 31.0559 27.1375 32.1343 26.1603 32.4993C26.0196 32.549 25.8788 32.5822 25.738 32.5988C24.885 32.6983 24.0403 32.2089 23.7339 31.3711C23.6263 31.0891 21.7713 25.7804 25.9699 19.667C23.03 19.7002 20.4214 19.9656 18.1027 20.4135C13.6971 25.4734 15.0966 29.8532 15.1711 30.0688C15.5272 31.0476 15.0221 32.126 14.0449 32.4827C13.9041 32.5324 13.7633 32.5656 13.6225 32.5822C12.7696 32.6817 11.9332 32.184 11.6267 31.3463C11.5357 31.0974 10.1444 27.0578 12.5377 22.0062C1.57331 26.3527 0.0744018 35.1619 0.0744018 35.1619C0.0744018 35.1619 -1.43279 44.9997 9.51503 44.9997H45.0582C46.6399 44.9997 48.2133 44.5767 49.53 43.6974C51.2608 42.5444 52.9999 40.396 52.9999 36.4062C52.9999 35.4854 52.8425 34.573 52.5361 33.702Z" fill="#9F9F9F"/>
</g>
<defs>
<clipPath id="clip0_2600_17564">
<rect width="53" height="45" fill="white"/>
</clipPath>
</defs>
</svg>